<svg id="Layer_1" data-name="Layer 1" xmlns="http://www.w3.org/2000/svg" xmlns:xlink="http://www.w3.org/1999/xlink" viewBox="0 0 1300 511.69">
  <defs>
    <style>
      .cls-1 {
        fill: url(#linear-gradient);
      }

      .cls-2 {
        fill: url(#linear-gradient-5);
      }

      .cls-3 {
        fill: url(#linear-gradient-6);
      }

      .cls-4 {
        fill: #fff;
      }

      .cls-5 {
        fill: url(#linear-gradient-7);
      }

      .cls-6 {
        fill: url(#linear-gradient-8);
      }

      .cls-7 {
        fill: url(#linear-gradient-9);
      }

      .cls-8 {
        fill: url(#linear-gradient-10);
      }

      .cls-9 {
        fill: url(#linear-gradient-11);
      }

      .cls-10 {
        fill: url(#linear-gradient-12);
      }

      .cls-11 {
        fill: url(#linear-gradient-13);
      }

      .cls-12 {
        fill: url(#linear-gradient-14);
      }

      .cls-13 {
        fill: url(#linear-gradient-15);
      }

      .cls-14 {
        fill: url(#linear-gradient-16);
      }

      .cls-15 {
        fill: url(#linear-gradient-17);
      }

      .cls-16 {
        fill: url(#linear-gradient-18);
      }

      .cls-17 {
        fill: url(#linear-gradient-19);
      }
    </style>
    <linearGradient id="linear-gradient" x1="697.4" y1="239.47" x2="1145.22" y2="335.9" gradientUnits="userSpaceOnUse">
      <stop offset="0" stop-color="#f48500"/>
      <stop offset="0.51" stop-color="#f54b02"/>
      <stop offset="1" stop-color="#e93763"/>
    </linearGradient>
    <linearGradient id="linear-gradient-5" x1="253.46" y1="256.15" x2="539.02" y2="256.15" xlink:href="#linear-gradient"/>
    <linearGradient id="linear-gradient-6" x1="288.52" y1="141.09" x2="401.23" y2="180.75" xlink:href="#linear-gradient"/>
    <linearGradient id="linear-gradient-7" x1="201.63" y1="182.31" x2="249.74" y2="182.31" xlink:href="#linear-gradient"/>
    <linearGradient id="linear-gradient-8" x1="172.64" y1="182.31" x2="193.68" y2="182.31" xlink:href="#linear-gradient"/>
    <linearGradient id="linear-gradient-9" x1="158.95" y1="212.81" x2="255.51" y2="212.81" xlink:href="#linear-gradient"/>
    <linearGradient id="linear-gradient-10" x1="122.28" y1="243.3" x2="158.86" y2="243.3" xlink:href="#linear-gradient"/>
    <linearGradient id="linear-gradient-11" x1="136.67" y1="297.24" x2="166.46" y2="297.24" xlink:href="#linear-gradient"/>
    <linearGradient id="linear-gradient-12" x1="171.88" y1="243.3" x2="271.72" y2="243.3" xlink:href="#linear-gradient"/>
    <linearGradient id="linear-gradient-13" x1="160.44" y1="270.23" x2="286.3" y2="270.23" xlink:href="#linear-gradient"/>
    <linearGradient id="linear-gradient-14" x1="148.93" y1="326.79" x2="321.23" y2="326.79" xlink:href="#linear-gradient"/>
    <linearGradient id="linear-gradient-15" x1="172.3" y1="353.71" x2="225.42" y2="353.71" xlink:href="#linear-gradient"/>
    <linearGradient id="linear-gradient-16" x1="237.78" y1="353.71" x2="343.1" y2="353.71" xlink:href="#linear-gradient"/>
    <linearGradient id="linear-gradient-17" x1="213.42" y1="383.92" x2="273.12" y2="383.92" xlink:href="#linear-gradient"/>
    <linearGradient id="linear-gradient-18" x1="283.19" y1="383.92" x2="362.02" y2="383.92" xlink:href="#linear-gradient"/>
    <linearGradient id="linear-gradient-19" x1="180.33" y1="297.24" x2="305.56" y2="297.24" xlink:href="#linear-gradient"/>
  </defs>
  <g id="Main_Logo" data-name="Main Logo">
    <g>
      <g>
        <path d="M654,313H632.77v64.27H588.05V181.6H666.3a66.91,66.91,0,0,1,67.07,67.07c0,24-14.53,45.83-36,56.73L739,377.22H690.89Zm-21.24-39.13H666.3c12.3,0,22.36-10.9,22.36-25.15s-10.06-25.15-22.36-25.15H632.77Z"/>
        <path d="M765.52,314.06V181.6h44.71V310.15c0,14.81,7,27.39,30.74,27.39s30.74-12.58,30.74-27.39V181.6h44.71V314.06c0,41.92-32.41,67.07-75.45,67.07S765.52,356,765.52,314.06Z"/>
        <path d="M1102.27,319.93c0,34.65-28.23,57.29-63.16,57.29H957V181.6h76.57c34.09,0,61.76,22.08,61.76,55.89,0,16.21-6.43,29.06-17,38.29C1092.77,285,1102.27,300.09,1102.27,319.93Zm-100.61-96.41v34.65h31.86c10.06,0,17-7.26,17-17.33s-6.71-17.32-17-17.32Zm55.89,93.06c0-10.9-7.26-18.73-18.44-18.73h-37.45V335.3h37.45C1050.29,335.3,1057.55,327.48,1057.55,316.58Z"/>
        <path d="M1177.72,181.6V377.22H1133V181.6Z"/>
      </g>
      <g>
        <path class="cls-1" d="M654,313H632.77v64.27H588.05V181.6H666.3a66.91,66.91,0,0,1,67.07,67.07c0,24-14.53,45.83-36,56.73L739,377.22H690.89Zm-21.24-39.13H666.3c12.3,0,22.36-10.9,22.36-25.15s-10.06-25.15-22.36-25.15H632.77Z"/>
        <path class="cls-1" d="M765.52,314.06V181.6h44.71V310.15c0,14.81,7,27.39,30.74,27.39s30.74-12.58,30.74-27.39V181.6h44.71V314.06c0,41.92-32.41,67.07-75.45,67.07S765.52,356,765.52,314.06Z"/>
        <path class="cls-1" d="M1102.27,319.93c0,34.65-28.23,57.29-63.16,57.29H957V181.6h76.57c34.09,0,61.76,22.08,61.76,55.89,0,16.21-6.43,29.06-17,38.29C1092.77,285,1102.27,300.09,1102.27,319.93Zm-100.61-96.41v34.65h31.86c10.06,0,17-7.26,17-17.33s-6.71-17.32-17-17.32Zm55.89,93.06c0-10.9-7.26-18.73-18.44-18.73h-37.45V335.3h37.45C1050.29,335.3,1057.55,327.48,1057.55,316.58Z"/>
        <path class="cls-1" d="M1177.72,181.6V377.22H1133V181.6Z"/>
      </g>
    </g>
    <g>
      <path class="cls-2" d="M539,354.13l-6.53,5.95c-11.82,10.78-37.1,29.65-73.68,34.9a161.49,161.49,0,0,1-23.76,1.89c-16,0-36.67-2.78-56.09-14.46-20-12-25.08-25.35-32.15-43.84-6.47-16.91-14.52-37.95-37.25-68.5-3.22-4.33-6.49-8.52-9.66-12.57-13.87-17.74-27-34.5-36.46-62.85a189.67,189.67,0,0,1-8.21-36l-1.77-13.76,10.82,8.69a168.15,168.15,0,0,0,27.66,18.09A182.51,182.51,0,0,0,319,183a113,113,0,0,1-9-15.4c-4.83-10.46-7.13-22.33-6.86-35.3l.36-16.84,9.79,13.71a126.31,126.31,0,0,0,10.07,12.38c5.44,5.89,11.31,11,33.56,27.29,4.82,3.53,7.63,5.56,10.89,7.9,2.86,2.06,6.09,4.39,11.36,8.22,8,5.85,16.1,11.78,24,17.62,6.54,4.76,13.11,9.82,19.48,15C436,228.5,442.74,234,447.28,240.36c9.28,13,11.9,26.64,13.82,36.6a118.87,118.87,0,0,1,2.11,19.37c.05,1.24.09,2.31.16,3.1,1.4,16,24.73,33.78,67.48,51.34Z"/>
      <path class="cls-3" d="M319.34,183a112,112,0,0,1-9-15.4c-4.83-10.46-7.14-22.33-6.86-35.3l.35-16.84,9.79,13.71a126.31,126.31,0,0,0,10.07,12.38c5.44,5.89,11.31,11,33.56,27.29,4.82,3.53,7.63,5.56,10.89,7.9,2.86,2.06,6.1,4.39,11.37,8.22,8,5.85,16.1,11.78,24,17.62,6.53,4.76,13.1,9.82,19.47,15"/>
      <path class="cls-4" d="M420.14,288.56a5.6,5.6,0,0,1-2.86-.78c-17.61-10.49-24.94-33.43-25.24-34.4A5.59,5.59,0,1,1,402.71,250c.12.37,6.47,19.89,20.3,28.12a5.59,5.59,0,0,1-2.87,10.4Z"/>
      <path class="cls-5" d="M244.15,187.91H207.23a5.6,5.6,0,1,1,0-11.19h36.92a5.6,5.6,0,0,1,0,11.19Z"/>
      <path class="cls-6" d="M188.09,187.91h-9.85a5.6,5.6,0,1,1,0-11.19h9.85a5.6,5.6,0,0,1,0,11.19Z"/>
      <path class="cls-7" d="M249.91,218.4H164.54a5.6,5.6,0,0,1,0-11.19h85.37a5.6,5.6,0,1,1,0,11.19Z"/>
      <path class="cls-8" d="M153.26,248.89H127.87a5.59,5.59,0,0,1,0-11.18h25.39a5.59,5.59,0,1,1,0,11.18Z"/>
      <path class="cls-9" d="M160.87,302.83H142.26a5.6,5.6,0,0,1,0-11.19h18.61a5.6,5.6,0,0,1,0,11.19Z"/>
      <path class="cls-10" d="M266.13,248.89H177.47a5.59,5.59,0,0,1,0-11.18h88.66a5.59,5.59,0,1,1,0,11.18Z"/>
      <path class="cls-11" d="M280.71,275.82H166a5.6,5.6,0,1,1,0-11.19H280.71a5.6,5.6,0,0,1,0,11.19Z"/>
      <path class="cls-12" d="M315.63,332.38H154.52a5.6,5.6,0,0,1,0-11.19H315.63a5.6,5.6,0,1,1,0,11.19Z"/>
      <path class="cls-13" d="M219.82,359.31H177.89a5.6,5.6,0,0,1,0-11.19h41.93a5.6,5.6,0,1,1,0,11.19Z"/>
      <path class="cls-14" d="M337.5,359.31H243.38a5.6,5.6,0,1,1,0-11.19H337.5a5.6,5.6,0,1,1,0,11.19Z"/>
      <path class="cls-15" d="M267.52,389.51H219a5.59,5.59,0,0,1,0-11.18h48.51a5.59,5.59,0,1,1,0,11.18Z"/>
      <path class="cls-16" d="M356.42,389.51H288.78a5.59,5.59,0,0,1,0-11.18h67.64a5.59,5.59,0,1,1,0,11.18Z"/>
      <path class="cls-17" d="M300,302.83H185.92a5.6,5.6,0,0,1,0-11.19H300a5.6,5.6,0,0,1,0,11.19Z"/>
    </g>
  </g>
</svg>
